<?xml version="1.0" encoding="UTF-8"?>
<svg width="104px" height="13px" viewBox="0 0 104 13" version="1.1" xmlns="http://www.w3.org/2000/svg" xmlns:xlink="http://www.w3.org/1999/xlink">
    <!-- Generator: Sketch 51.1 (57501) - http://www.bohemiancoding.com/sketch -->
    <title>FAIRE</title>
    <desc>Created with Sketch.</desc>
    <defs></defs>
    <g id="Faire" stroke="none" stroke-width="1" fill="none" fill-rule="evenodd">
        <g id="Faire-Banner" transform="translate(-32.000000, -22.000000)" fill="#000000">
            <g id="Group-7" transform="translate(32.000000, 11.000000)">
                <path d="M11.2539746,14.2234332 L11.0761867,14.3119891 C10.5902306,13.7098063 10.1279867,13.1961874 9.68944099,12.7711172 C9.25089529,12.3460469 8.82420858,12.0331527 8.40936806,11.8324251 C8.20787409,11.737965 7.84341252,11.6582655 7.31597242,11.5933243 C6.78853232,11.528383 6.17517017,11.4959128 5.47586757,11.4959128 C5.35734171,11.4959128 5.22103901,11.4988646 5.06695538,11.5047684 C4.91287176,11.5106721 4.76471665,11.5165758 4.62248561,11.5224796 C4.48025457,11.5283833 4.34691498,11.534287 4.22246282,11.5401907 C4.09801066,11.5460945 4.00615449,11.5490463 3.94689156,11.5490463 C3.93503897,11.6198914 3.92022346,11.6907353 3.90244458,11.7615804 C3.8846657,11.8324254 3.86985019,11.9150767 3.85799761,12.0095368 C3.84614502,12.1039968 3.83429261,12.225022 3.82244003,12.3726158 C3.81058744,12.5202096 3.79873503,12.7002714 3.78688244,12.9128065 C3.77502986,13.3260693 3.76614055,13.7776996 3.76021426,14.2677112 C3.75428796,14.7577227 3.75132486,15.2211604 3.75132486,15.6580381 L3.75132486,17.3405995 L4.0713431,17.3405995 C4.26098448,17.3405995 4.47136473,17.3346958 4.70249017,17.3228883 C4.93361561,17.3110808 5.17362688,17.2963216 5.4225312,17.2786104 C5.67143551,17.2608991 5.87885267,17.2343326 6.04478888,17.1989101 C6.47148199,17.10445 6.80927564,16.9804731 7.05817995,16.8269755 C7.30708427,16.6734779 7.50264901,16.4904643 7.64488005,16.2779292 C7.78711109,16.065394 7.88785656,15.8321993 7.94711949,15.5783379 C8.00638243,15.3244765 8.05971827,15.0499561 8.10712861,14.7547684 L8.3204741,14.7547684 L8.3204741,20.4577657 L8.10712861,20.4577657 C8.01230792,20.0799254 7.87600522,19.6814281 7.69821642,19.2622616 C7.52042763,18.8430951 7.30708427,18.5213454 7.05817995,18.2970027 C6.83298081,18.0962751 6.59296953,17.9457317 6.33813893,17.8453678 C6.08330832,17.745004 5.784035,17.6830156 5.44030999,17.6594005 C5.26252119,17.647593 5.10843988,17.6387375 4.97806143,17.6328338 C4.84768298,17.62693 4.72323269,17.6239782 4.60470682,17.6239782 L3.75132486,17.6239782 L3.75132486,19.8201635 C3.75132486,20.1507737 3.75428796,20.4548124 3.76021426,20.7322888 C3.76614055,21.0097652 3.76910365,21.2488637 3.76910365,21.4495913 C3.78095624,21.8274315 3.80169795,22.1846032 3.83132942,22.5211172 C3.86096089,22.8576311 3.92911224,23.1085369 4.03578551,23.273842 C4.14245879,23.4391471 4.32320803,23.5660759 4.57803863,23.6546322 C4.83286924,23.7431885 5.20325702,23.7992733 5.68921306,23.8228883 L5.68921306,24 L0,24 L0,23.8228883 C0.296314662,23.7756583 0.571883164,23.6989106 0.826713773,23.5926431 C1.08154438,23.4863755 1.29192464,23.3387839 1.45786085,23.1498638 C1.51712378,23.0790187 1.56453341,22.9757046 1.60009117,22.8399183 C1.63564893,22.7041319 1.66824306,22.5476848 1.69787452,22.3705722 C1.72750599,22.1934596 1.7482477,22.0074942 1.76010029,21.8126703 C1.77195288,21.6178464 1.77787908,21.4259773 1.77787908,21.2370572 C1.77787908,21.0717521 1.78084218,20.8474129 1.78676848,20.5640327 C1.79269477,20.2806525 1.79862097,19.9707101 1.80454727,19.6341962 C1.81047356,19.2976822 1.81343666,18.9523178 1.81343666,18.5980926 L1.81343666,14.1171662 C1.81343666,13.9046311 1.81047356,13.6861955 1.80454727,13.4618529 C1.79862097,13.2375102 1.78676857,13.0249783 1.76898969,12.8242507 C1.75121081,12.6235231 1.72157978,12.4434613 1.68009573,12.2840599 C1.63861168,12.1246586 1.58231274,12.0095371 1.51119722,11.9386921 C1.33340842,11.749772 1.14376988,11.6287469 0.942275913,11.5756131 C0.740781943,11.5224793 0.480028952,11.4722981 0.160009117,11.4250681 L0.160009117,11.2479564 L10.0450168,11.2479564 L11.2539746,14.2234332 Z M30.6802667,24 L30.6802667,23.8228883 C30.7158244,23.8228883 30.8017544,23.811081 30.9380591,23.7874659 C31.0743639,23.7638509 31.2165928,23.7225253 31.3647501,23.6634877 C31.5129075,23.6044502 31.643284,23.5217989 31.7558835,23.4155313 C31.8684831,23.3092638 31.924782,23.1734795 31.924782,23.0081744 C31.924782,22.9019068 31.8921879,22.7277487 31.8269987,22.4856948 C31.7618095,22.2436409 31.6699533,21.9484577 31.5514274,21.6001362 C31.4329016,21.2518148 31.2965989,20.8651247 31.1425152,20.4400545 C30.9884316,20.0149843 30.8224979,19.5722094 30.6447091,19.1117166 L25.9155507,19.1117166 C25.7377619,19.5604019 25.565902,19.9884176 25.3999658,20.3957766 C25.2340296,20.8031356 25.0680959,21.2134403 24.9021597,21.626703 C24.6532554,22.2643084 24.5288051,22.7129869 24.5288051,22.972752 C24.5288051,23.1262496 24.5762147,23.2531784 24.6710354,23.3535422 C24.7658561,23.453906 24.8873433,23.5365574 25.0355006,23.6014986 C25.1836579,23.6664399 25.3436654,23.7136692 25.515528,23.743188 C25.6873905,23.7727068 25.8503611,23.7992733 26.0044447,23.8228883 L26.0044447,24 L22.2175623,24 L22.2175623,23.8051771 C22.5257295,23.7697546 22.7894456,23.6871033 23.0087184,23.5572207 C23.2279913,23.4273381 23.3554047,23.3387832 23.3909624,23.2915531 C23.4739306,23.2089006 23.6102333,23.0140796 23.7998746,22.7070845 C23.989516,22.4000893 24.220638,21.9455071 24.4932475,21.3433243 C24.7421518,20.7883714 25.0206834,20.1566793 25.3288506,19.4482289 C25.6370179,18.7397785 25.9540698,18.0106759 26.280016,17.2608992 C26.6059621,16.5111225 26.9289402,15.7554534 27.2489601,14.9938692 C27.5689799,14.232285 27.8712163,13.5208934 28.1556784,12.859673 L27.9778905,12.4700272 C28.191237,12.3755672 28.3838387,12.2633976 28.5557012,12.133515 C28.7275637,12.0036324 28.8786819,11.8678481 29.0090603,11.726158 C29.1394388,11.584468 29.2490736,11.4486837 29.337968,11.3188011 C29.4268624,11.1889185 29.4950137,11.0826525 29.5424241,11 L29.6846544,11 C30.0520846,11.9800231 30.4017306,12.9098503 30.7336031,13.7895095 C31.0654755,14.6691688 31.3825274,15.5163447 31.6847684,16.3310627 C31.9870093,17.1457806 32.2803564,17.9339199 32.5648185,18.6955041 C32.8492806,19.4570883 33.1337384,20.2098055 33.4182005,20.9536785 C33.5485789,21.3197112 33.6700661,21.6237499 33.7826657,21.8658038 C33.8952653,22.1078577 34.0226786,22.3823781 34.1649097,22.6893733 C34.1886149,22.7366033 34.2419507,22.8192546 34.3249188,22.9373297 C34.4078869,23.0554048 34.5175217,23.1764299 34.6538264,23.3004087 C34.7901312,23.4243875 34.959028,23.5336053 35.160522,23.6280654 C35.3620159,23.7225254 35.5990641,23.7756584 35.8716736,23.7874659 L35.8716736,24 L30.6802667,24 Z M28.3512451,13.26703 C28.2801296,13.4205276 28.176421,13.6625778 28.0401162,13.993188 C27.9038115,14.3237982 27.7349147,14.7252474 27.5334207,15.1975477 C27.3319267,15.669848 27.1096941,16.2041296 26.8667161,16.8004087 C26.623738,17.3966878 26.3600219,18.0431391 26.0755599,18.739782 L30.5024788,18.739782 C30.3009848,18.2084442 30.0965308,17.6771144 29.8891105,17.1457766 C29.6816902,16.6144388 29.4801993,16.1037718 29.2846316,15.6137602 C29.0890639,15.1237487 28.9112778,14.6750702 28.7512679,14.2677112 C28.591258,13.8603522 28.4579184,13.5267951 28.3512451,13.26703 Z M53.3600775,24 L47.9731039,24 L47.9731039,23.8228883 C48.2694185,23.7756583 48.544987,23.6989106 48.7998177,23.5926431 C49.0546483,23.4863755 49.2709547,23.3328802 49.4487435,23.1321526 C49.5080065,23.0613075 49.552453,22.9609452 49.5820844,22.8310627 C49.6117159,22.7011801 49.6354207,22.5476848 49.6531996,22.3705722 C49.6709785,22.1934596 49.6828309,22.0074942 49.6887572,21.8126703 C49.6946835,21.6178464 49.6976466,21.4259773 49.6976466,21.2370572 C49.6976466,21.0717521 49.7006097,20.8474129 49.706536,20.5640327 C49.7124623,20.2806525 49.7183885,19.9707101 49.7243148,19.6341962 C49.7302411,19.2976822 49.7332042,18.9523178 49.7332042,18.5980926 L49.7332042,13.479564 C49.7332042,13.2670289 49.7243149,13.0692561 49.706536,12.8862398 C49.6887571,12.7032234 49.6620892,12.5379208 49.6265314,12.390327 C49.5909737,12.2427331 49.5376378,12.1276117 49.4665223,12.0449591 C49.3005861,11.8442315 49.096132,11.6995917 48.853154,11.6110354 C48.610176,11.5224791 48.3346075,11.4604906 48.0264403,11.4250681 L48.0264403,11.2479564 L53.3422987,11.2479564 L53.3422987,11.4250681 C53.0933944,11.4604906 52.8267152,11.525431 52.5422531,11.619891 C52.257791,11.7143511 52.0385215,11.9032683 51.8844379,12.1866485 C51.7777646,12.3873761 51.7214656,12.6412337 51.7155393,12.9482289 C51.7096131,13.2552241 51.7007237,13.5445036 51.6888712,13.8160763 C51.6888712,14.111264 51.6859081,14.4034954 51.6799818,14.6927793 C51.6740555,14.9820632 51.6710924,15.2742946 51.6710924,15.5694823 L51.6710924,21.5027248 C51.6710924,21.8451425 51.6770186,22.1757477 51.6888712,22.4945504 C51.7007237,22.8133531 51.7540596,23.0376924 51.8488803,23.1675749 C51.9911113,23.3683025 52.2163071,23.5217978 52.5244743,23.6280654 C52.8326416,23.734333 53.1111732,23.7992733 53.3600775,23.8228883 L53.3600775,24 Z M80.2712405,24 L76.6265884,24 C76.5199151,23.8937324 76.4428745,23.814033 76.3954641,23.7608992 C76.3480538,23.7077654 76.2947179,23.6457769 76.235455,23.5749319 C76.1761921,23.5040868 76.1021145,23.4007727 76.0132201,23.2649864 C75.9243257,23.1292 75.7850599,22.9255236 75.5954185,22.653951 C75.3702194,22.3233408 75.1716916,22.0252057 74.9998291,21.7595368 C74.8279665,21.4938679 74.6531435,21.2311548 74.4753547,20.9713896 C74.2975659,20.7116245 74.1049643,20.4489114 73.897544,20.1832425 C73.6901238,19.9175736 73.4441863,19.6194385 73.1597242,19.2888283 C72.9226725,19.0172557 72.6648826,18.7633981 72.3863468,18.527248 C72.107811,18.2910978 71.8144639,18.1435062 71.5062967,18.0844687 C71.2810975,18.0372386 71.1092376,18.013624 70.9907117,18.013624 C70.8840384,18.013624 70.7477357,18.0077203 70.5817995,17.9959128 L70.5817995,19.9972752 C70.5817995,20.5640355 70.5877257,21.0422324 70.5995783,21.4318801 C70.6114309,21.8097203 70.6232833,22.1344219 70.6351359,22.4059946 C70.6469885,22.6775672 70.7121767,22.9019065 70.8307026,23.0790191 C70.9255233,23.2325167 71.1092356,23.3889638 71.3818451,23.5483651 C71.6544546,23.7077665 72.0337317,23.7992733 72.5196877,23.8228883 L72.5196877,24 L66.8304747,24 L66.8304747,23.8228883 C67.1267893,23.7756583 67.4112471,23.7048143 67.6838566,23.6103542 C67.9564661,23.5158942 68.1698095,23.3742062 68.3238931,23.1852861 C68.383156,23.1144411 68.4305657,23.0081751 68.4661234,22.866485 C68.5016812,22.7247949 68.5283491,22.565396 68.546128,22.3882834 C68.5639069,22.2111708 68.5787224,22.0222535 68.590575,21.8215259 C68.6024275,21.6207983 68.6083538,21.4259773 68.6083538,21.2370572 C68.6083538,21.0717521 68.6113169,20.8474129 68.6172431,20.5640327 C68.6231694,20.2806525 68.6290956,19.9707101 68.6350219,19.6341962 C68.6409482,19.2976822 68.6439113,18.9523178 68.6439113,18.5980926 L68.6439113,14.1171662 C68.6439113,13.9046311 68.6409482,13.6891473 68.6350219,13.4707084 C68.6290956,13.2522696 68.6172432,13.0456413 68.5994644,12.8508174 C68.5816855,12.6559936 68.5520545,12.4788836 68.5105704,12.3194823 C68.4690864,12.1600809 68.4127874,12.0449595 68.3416719,11.9741144 C68.1638831,11.7851943 67.9653552,11.6582655 67.7460824,11.5933243 C67.5268095,11.528383 67.2571673,11.4722981 66.9371474,11.4250681 L66.9371474,11.2479564 L67.6660778,11.2479564 C68.0690658,11.2479564 68.5253835,11.2450046 69.0350447,11.2391008 C69.544706,11.2331971 70.0543595,11.2302452 70.5640207,11.2302452 L71.8085361,11.2302452 C72.6026594,11.2302452 73.3078777,11.2538599 73.9242122,11.3010899 C74.5405467,11.3483199 75.1035361,11.5077189 75.6131973,11.7792916 C76.1347111,12.0508642 76.5554716,12.4198433 76.8754915,12.8862398 C77.1955113,13.3526363 77.3555188,13.940051 77.3555188,14.6485014 C77.3555188,15.0853791 77.2755151,15.4779728 77.1155052,15.8262943 C76.9554952,16.1746157 76.7421519,16.4816063 76.4754687,16.7472752 C76.2087855,17.0129441 75.8976598,17.2402352 75.5420822,17.4291553 C75.1865046,17.6180754 74.8131537,17.7774744 74.4220183,17.9073569 L74.4220183,17.9604905 C74.6235123,18.066758 74.8190771,18.2202533 75.0087184,18.4209809 C75.1983598,18.6217085 75.3820722,18.8460478 75.559861,19.0940054 C75.8680282,19.5426907 76.2028588,20.0267912 76.5643626,20.5463215 C76.9258665,21.0658518 77.2488447,21.5263377 77.5333067,21.9277929 C77.9718524,22.5417833 78.3985392,22.9904618 78.8133797,23.273842 C79.2282202,23.5572221 79.714169,23.7402357 80.2712405,23.8228883 L80.2712405,24 Z M75.3109579,14.5422343 C75.3109579,13.951859 75.1628028,13.4264328 74.8664881,12.9659401 C74.5701735,12.5054473 74.1375605,12.1394201 73.5686364,11.8678474 C73.2841743,11.7379648 72.984901,11.6435062 72.6708075,11.5844687 C72.3567139,11.5254311 72.0278096,11.4959128 71.6840846,11.4959128 C71.4351802,11.4959128 71.2336893,11.5018165 71.0796057,11.513624 C70.9255221,11.5254315 70.806998,11.5372388 70.7240299,11.5490463 C70.7121773,11.6198914 70.7003249,11.6818798 70.6884723,11.7350136 C70.6766197,11.7881474 70.6677304,11.8560396 70.6618041,11.9386921 C70.6558778,12.0213446 70.6499516,12.1364661 70.6440253,12.2840599 C70.638099,12.4316538 70.6292097,12.6412339 70.6173571,12.9128065 C70.6055045,13.3260693 70.5966152,13.7924588 70.5906889,14.3119891 C70.5847626,14.8315194 70.5817995,15.3333309 70.5817995,15.8174387 L70.5817995,17.7656676 C71.0677556,17.7656676 71.5211102,17.7450047 71.941877,17.7036785 C72.3626438,17.6623522 72.7685888,17.5767491 73.1597242,17.4468665 C73.539007,17.3287914 73.8649482,17.1693925 74.1375577,16.9686649 C74.4101672,16.7679372 74.6323998,16.5406461 74.8042624,16.2867847 C74.9761249,16.0329233 75.1035382,15.7584029 75.1865064,15.4632153 C75.2694745,15.1680276 75.3109579,14.861037 75.3109579,14.5422343 Z M104,20.6171662 L103.11106,24 L92.2304405,24 L92.2304405,23.8228883 C92.5267551,23.7756583 92.8023236,23.6989106 93.0571543,23.5926431 C93.3119849,23.4863755 93.5223651,23.3387839 93.6883013,23.1498638 C93.7475643,23.0790187 93.7949739,22.9757046 93.8305317,22.8399183 C93.8660894,22.7041319 93.8986835,22.5476848 93.928315,22.3705722 C93.9579465,22.1934596 93.9786882,22.0074942 93.9905408,21.8126703 C94.0023934,21.6178464 94.0083196,21.4259773 94.0083196,21.2370572 C94.0083196,21.0717521 94.0112827,20.8474129 94.017209,20.5640327 C94.0231353,20.2806525 94.0290615,19.9707101 94.0349877,19.6341962 C94.040914,19.2976822 94.0438771,18.9523178 94.0438771,18.5980926 C94.0438771,18.2320599 94.0438771,17.8896474 94.0438771,17.5708447 L94.0438771,14.1171662 C94.0438771,13.9046311 94.040914,13.6861955 94.0349877,13.4618529 C94.0290615,13.2375102 94.017209,13.0249783 93.9994302,12.8242507 C93.9816513,12.6235231 93.9520203,12.4434613 93.9105362,12.2840599 C93.8690522,12.1246586 93.8127532,12.0095371 93.7416377,11.9386921 C93.5638489,11.749772 93.3742104,11.6287469 93.1727164,11.5756131 C92.9712224,11.5224793 92.7104694,11.4722981 92.3904496,11.4250681 L92.3904496,11.2479564 L102.204342,11.2479564 L103.4133,14.1702997 L103.235512,14.2588556 C102.275452,13.0662974 101.374669,12.263399 100.533136,11.8501362 C100.331642,11.7556762 99.9582909,11.6730249 99.413072,11.6021798 C98.867853,11.5313348 98.2041181,11.4959128 97.4218474,11.4959128 C97.1729431,11.4959128 96.9151532,11.5047683 96.64847,11.5224796 C96.3817868,11.5401908 96.1891852,11.5608537 96.0706593,11.5844687 C96.0469541,11.7733888 96.0262124,12.1630307 96.0084335,12.753406 C95.9906546,13.3437813 95.9817653,14.0286065 95.9817653,14.8079019 C95.9817653,15.2565872 95.9817653,15.6344217 95.9817653,15.9414169 C95.9817653,16.2484121 95.9847284,16.4993178 95.9906547,16.6941417 C95.996581,16.8889656 95.9995441,17.039509 95.9995441,17.1457766 C95.9995441,17.2402366 95.9995441,17.3051769 95.9995441,17.3405995 C96.0588071,17.3405995 96.1773312,17.3405995 96.3551199,17.3405995 C96.5329087,17.3405995 96.7373628,17.3346958 96.9684882,17.3228883 C97.1996137,17.3110808 97.4307356,17.2963216 97.6618611,17.2786104 C97.8929865,17.2608991 98.0855882,17.2343326 98.2396718,17.1989101 C98.5952494,17.1162575 98.8915596,17.0040879 99.1286113,16.8623978 C99.365663,16.7207077 99.5582647,16.5495015 99.706422,16.3487738 C99.8545793,16.1480462 99.9731034,15.9148515 100.061998,15.6491826 C100.150892,15.3835137 100.230896,15.0853786 100.302012,14.7547684 L100.515357,14.7547684 L100.515357,20.3337875 L100.302012,20.3337875 C100.207191,19.9559472 100.061999,19.5663054 99.8664311,19.1648501 C99.6708635,18.7633949 99.4664094,18.462308 99.2530629,18.2615804 C99.0634215,18.0962753 98.8352626,17.960491 98.5685794,17.8542234 C98.3018962,17.7479559 97.9907705,17.6830156 97.6351929,17.6594005 C97.4574041,17.647593 97.309249,17.6387375 97.1907231,17.6328338 C97.0721973,17.62693 96.9536732,17.6239782 96.8351473,17.6239782 C96.728474,17.6239782 96.6099499,17.6239782 96.4795715,17.6239782 C96.3610456,17.6239782 96.2069643,17.6239782 96.0173229,17.6239782 C95.9936178,17.7892833 95.9817653,18.0313336 95.9817653,18.3501362 C95.9817653,18.6689389 95.9817653,18.9995442 95.9817653,19.3419619 C95.9817653,19.4954594 95.9817653,19.6725694 95.9817653,19.873297 C95.9817653,20.0740246 95.9817653,20.2747492 95.9817653,20.4754768 C95.9817653,20.6643969 95.9847284,20.8444587 95.9906547,21.0156676 C95.996581,21.1868764 95.9995441,21.3315162 95.9995441,21.4495913 C96.0113967,21.8274315 96.0321384,22.1846032 96.0617699,22.5211172 C96.0914014,22.8576311 96.1595527,23.1085369 96.266226,23.273842 C96.3728993,23.4391471 96.6277261,23.5572204 97.030714,23.6280654 C97.4337019,23.6989104 97.8722411,23.7343324 98.3463445,23.7343324 C98.5478385,23.7343324 98.8056284,23.7284288 99.1197219,23.7166213 C99.4338155,23.7048137 99.7627198,23.6752954 100.106445,23.6280654 C100.485728,23.5808354 100.835374,23.4893286 101.155393,23.3535422 C101.475413,23.2177559 101.783576,23.0258868 102.079891,22.7779292 C102.376205,22.5299715 102.663626,22.2259328 102.942162,21.8658038 C103.220698,21.5056749 103.508119,21.0717555 103.804433,20.5640327 L104,20.6171662 Z" id="FAIRE"></path>
            </g>
        </g>
    </g>
</svg>